<svg xmlns="http://www.w3.org/2000/svg" width="27.2" height="36.267" viewBox="0 0 27.2 36.267">
  <path id="document" d="M139.521,74.3a2.177,2.177,0,0,0-.331-.576l-7.915-8.661a2.187,2.187,0,0,0-.633-.463,1.923,1.923,0,0,0-.9-.2h-15.1a2.205,2.205,0,0,0-2.144,2.257V98.316a2.285,2.285,0,0,0,2.144,2.352H137.6a2.248,2.248,0,0,0,2.1-2.352V75.261A2.334,2.334,0,0,0,139.521,74.3Zm-22.487.888c0-.142.17-.2.321-.2h6.687c.151,0,.264.057.264.2v1.02a.289.289,0,0,1-.264.293h-6.687a.353.353,0,0,1-.321-.293Zm0,12.089c0-.142.17-.2.321-.2H128.9c.151,0,.227.057.227.2v1.02c0,.132-.066.293-.227.293H117.354a.353.353,0,0,1-.321-.293Zm15.111,7.065c0,.132-.066.293-.227.293H117.354a.353.353,0,0,1-.321-.293v-1.02c0-.142.17-.2.321-.2h14.563c.151,0,.227.057.227.2Zm3.022-12.089c0,.132-.066.293-.227.293H117.354a.353.353,0,0,1-.321-.293V81.23c0-.142.17-.2.321-.2H134.94c.151,0,.227.057.227.2Zm-4.429-7.168a1.1,1.1,0,0,1-1.048-1.067V67.781l6.725,7.3Z" transform="translate(-112.5 -64.4)" fill="#fb5537"/>
</svg>
