<svg xmlns="http://www.w3.org/2000/svg" xmlns:xlink="http://www.w3.org/1999/xlink" width="81.511" height="79.494" viewBox="0 0 81.511 79.494">
  <defs>
    <linearGradient id="linear-gradient" x1="0.5" x2="0.5" y2="1" gradientUnits="objectBoundingBox">
      <stop offset="0" stop-color="#131418"/>
      <stop offset="1" stop-color="#602927"/>
    </linearGradient>
    <filter id="Polygon_9" x="0" y="0" width="81.511" height="79.494" filterUnits="userSpaceOnUse">
      <feOffset dy="3" input="SourceAlpha"/>
      <feGaussianBlur stdDeviation="3" result="blur"/>
      <feFlood flood-opacity="0.161"/>
      <feComposite operator="in" in2="blur"/>
      <feComposite in="SourceGraphic"/>
    </filter>
  </defs>
  <g id="Group_10004" data-name="Group 10004" transform="translate(-1394.489 -4167.251)">
    <g transform="matrix(1, 0, 0, 1, 1394.49, 4167.25)" filter="url(#Polygon_9)">
      <g id="Polygon_9-2" data-name="Polygon 9" transform="translate(72.51 43.24) rotate(150)" fill="url(#linear-gradient)">
        <path d="M 34.04664993286133 42.49983978271484 L 14.46378993988037 42.49983978271484 C 13.20291042327881 42.49983978271484 12.03480052947998 41.81761932373047 11.41532039642334 40.71940994262695 L 1.544020414352417 23.21949005126953 C 0.9457303881645203 22.1588191986084 0.9457303881645203 20.84102058410645 1.544030427932739 19.78034973144531 L 11.41533088684082 2.280429840087891 C 12.03481006622314 1.182219862937927 13.20291042327881 0.4999998807907104 14.46378993988037 0.4999998807907104 L 34.04664993286133 0.4999998807907104 C 35.30752182006836 0.4999998807907104 36.47563171386719 1.182219862937927 37.09511947631836 2.280439853668213 L 46.9664192199707 19.78034973144531 C 47.5647087097168 20.84102058410645 47.5647087097168 22.1588191986084 46.96641159057617 23.21949005126953 L 37.09511947631836 40.71940994262695 C 36.47563171386719 41.81761932373047 35.30752182006836 42.49983978271484 34.04664993286133 42.49983978271484 Z" stroke="none"/>
        <path d="M 14.46379089355469 1 C 13.38302993774414 1 12.38180923461914 1.584758758544922 11.850830078125 2.526081085205078 L 1.979518890380859 20.02599906921387 C 1.466701507568359 20.93515014648438 1.466701507568359 22.06468963623047 1.979518890380859 22.97384071350098 L 11.8508186340332 40.47375106811523 C 12.38180160522461 41.41508102416992 13.38302993774414 41.99983978271484 14.46379089355469 41.99983978271484 L 34.04664993286133 41.99983978271484 C 35.12739944458008 41.99983978271484 36.12863159179688 41.41508102416992 36.65961074829102 40.47375869750977 L 46.53091049194336 22.97382926940918 C 47.04373931884766 22.06468963623047 47.04373931884766 20.93515014648438 46.53091049194336 20.02599906921387 L 36.65961074829102 2.526081085205078 C 36.12863159179688 1.584758758544922 35.12741088867188 1 34.04664993286133 1 L 14.46379089355469 1 M 14.46379089355469 0 L 34.04664993286133 0 C 35.49002838134766 0 36.82146072387695 0.7776107788085938 37.53060150146484 2.034778594970703 L 47.40190124511719 19.53470039367676 C 48.08996963500977 20.75450897216797 48.08996963500977 22.24533081054688 47.40190124511719 23.46513938903809 L 37.53060150146484 40.96506118774414 C 36.82146072387695 42.22222137451172 35.49002838134766 42.99983978271484 34.04664993286133 42.99983978271484 L 14.46379089355469 42.99983978271484 C 13.02040100097656 42.99983978271484 11.68896865844727 42.22222137451172 10.97983169555664 40.96506118774414 L 1.108531951904297 23.46513938903809 C 0.42047119140625 22.24533081054688 0.42047119140625 20.75450897216797 1.108531951904297 19.53470039367676 L 10.97983932495117 2.034778594970703 C 11.68898010253906 0.7776107788085938 13.02040863037109 0 14.46379089355469 0 Z" stroke="none" fill="#fff"/>
      </g>
    </g>
    <path id="Path_20953" data-name="Path 20953" d="M286.9,1596.744v-3.637H283.05v-1.871q0-2.776,2.537-2.776a5.276,5.276,0,0,1,1.91.392v-3.833a8.712,8.712,0,0,0-2.568-.318,7.066,7.066,0,0,0-4.937,1.705,5.854,5.854,0,0,0-1.88,4.557v2.143h-2.828v3.637h2.828l-.021,11.938c.017.022,4.876-.006,4.935.023l.022-11.962Z" transform="translate(1153.334 2607.295)" fill="#fff"/>
  </g>
</svg>
