<svg xmlns="http://www.w3.org/2000/svg" width="36.482" height="32.834" viewBox="0 0 36.482 32.834">
  <g id="folder-select" transform="translate(0)">
    <path id="Path_20963" data-name="Path 20963" d="M6.23,3.036,16.659,3l3.582,3.648L34.489,6.7A3.581,3.581,0,0,1,38.1,9.789a80.238,80.238,0,0,1,.379,8.758q0,7.069-.61,13.559a3.557,3.557,0,0,1-3.318,3.137q-7.157.59-14.313.59t-14.313-.59A3.557,3.557,0,0,1,2.61,32.107Q2,25.616,2,18.548c0-4.7.2-7.661.607-12.337A3.575,3.575,0,0,1,6.23,3.036ZM26.248,14.479,18.417,22.31l-4.183-4.182a1.824,1.824,0,1,0-2.58,2.58l5.472,5.472a1.824,1.824,0,0,0,2.58,0l9.121-9.121a1.824,1.824,0,0,0-2.58-2.58Z" transform="translate(-2 -3)" fill="#fff"/>
    <path id="Path_20964" data-name="Path 20964" d="M18.45,4.824l-10.4.036A3.575,3.575,0,0,0,4.431,8.035c-.4,4.676-.607,7.636-.607,12.337s.2,9.232.61,13.559a3.306,3.306,0,0,0,.254,1A3.47,3.47,0,0,1,2.61,32.107Q2,25.616,2,18.548c0-4.7.2-7.661.607-12.337A3.575,3.575,0,0,1,6.23,3.036L16.659,3Zm1.824,1.824L34.489,6.7a3.654,3.654,0,0,1,3.367,2.154,3.805,3.805,0,0,0-1.543-.329L22.065,8.472Z" transform="translate(-2 -3)" fill="#fff"/>
  </g>
</svg>
