<svg id="Group_10014" data-name="Group 10014" xmlns="http://www.w3.org/2000/svg" width="1920" height="1080" viewBox="0 0 1920 1080">
  <rect id="Rectangle_17" data-name="Rectangle 17" width="1920" height="1080" fill="#f6f4f2"/>
  <g id="Group_9946" data-name="Group 9946" transform="translate(-0.5 -209)">
    <path id="Line_2" data-name="Line 2" d="M1.5,1080h-3V0h3Z" transform="translate(227 209)" fill="#efe7df"/>
    <path id="Line_7" data-name="Line 7" d="M1.5,1080h-3V0h3Z" transform="translate(960 209)" fill="#efe7df" opacity="0.53"/>
    <path id="Line_3" data-name="Line 3" d="M1.5,1080h-3V0h3Z" transform="translate(471 209)" fill="#efe7df" opacity="0.53"/>
    <path id="Line_6" data-name="Line 6" d="M1.5,1080h-3V0h3Z" transform="translate(1205 209)" fill="#efe7df" opacity="0.53"/>
    <path id="Line_4" data-name="Line 4" d="M1.5,1080h-3V0h3Z" transform="translate(716 209)" fill="#efe7df" opacity="0.53"/>
    <path id="Line_5" data-name="Line 5" d="M1.5,1080h-3V0h3Z" transform="translate(1449 209)" fill="#efe7df" opacity="0.53"/>
    <path id="Line_8" data-name="Line 8" d="M1.5,1080h-3V0h3Z" transform="translate(1694 209)" fill="#efe7df"/>
  </g>
  <g id="Group_9939" data-name="Group 9939" transform="translate(204.8 651.092)">
    <path id="Path_20926" data-name="Path 20926" d="M46.9,24.7A22.2,22.2,0,1,1,24.7,2.5,22.2,22.2,0,0,1,46.9,24.7Z" transform="translate(-2.5 -2.5)" fill="#f6f4f2" stroke="#efe7df" stroke-linecap="round" stroke-linejoin="round" stroke-width="5"/>
  </g>
  <g id="Group_9933" data-name="Group 9933" transform="translate(1670.3 222.476)">
    <path id="Path_20926-2" data-name="Path 20926" d="M46.9,24.7A22.2,22.2,0,1,1,24.7,2.5,22.2,22.2,0,0,1,46.9,24.7Z" transform="translate(-2.5 -2.5)" fill="#efe7df"/>
  </g>
</svg>
