<svg xmlns="http://www.w3.org/2000/svg" xmlns:xlink="http://www.w3.org/1999/xlink" width="81.511" height="79.494" viewBox="0 0 81.511 79.494">
  <defs>
    <filter id="Polygon_11" x="0" y="0" width="81.511" height="79.494" filterUnits="userSpaceOnUse">
      <feOffset dy="3" input="SourceAlpha"/>
      <feGaussianBlur stdDeviation="3" result="blur"/>
      <feFlood flood-opacity="0.161"/>
      <feComposite operator="in" in2="blur"/>
      <feComposite in="SourceGraphic"/>
    </filter>
  </defs>
  <g id="Group_10007" data-name="Group 10007" transform="translate(-1545.489 -4167.251)">
    <g transform="matrix(1, 0, 0, 1, 1545.49, 4167.25)" filter="url(#Polygon_11)">
      <g id="Polygon_11-2" data-name="Polygon 11" transform="translate(72.51 43.24) rotate(150)" fill="none">
        <path d="M34.047,0a4,4,0,0,1,3.484,2.035l9.871,17.5a4,4,0,0,1,0,3.93l-9.871,17.5A4,4,0,0,1,34.047,43H14.464a4,4,0,0,1-3.484-2.035l-9.871-17.5a4,4,0,0,1,0-3.93l9.871-17.5A4,4,0,0,1,14.464,0Z" stroke="none"/>
        <path d="M 14.46379089355469 1 C 13.38302993774414 1 12.38180923461914 1.584758758544922 11.850830078125 2.526081085205078 L 1.979518890380859 20.02599906921387 C 1.466701507568359 20.93515014648438 1.466701507568359 22.06468963623047 1.979518890380859 22.97384071350098 L 11.8508186340332 40.47375106811523 C 12.38180160522461 41.41508102416992 13.38302993774414 41.99983978271484 14.46379089355469 41.99983978271484 L 34.04664993286133 41.99983978271484 C 35.12739944458008 41.99983978271484 36.12863159179688 41.41508102416992 36.65961074829102 40.47375869750977 L 46.53091049194336 22.97382926940918 C 47.04373931884766 22.06468963623047 47.04373931884766 20.93515014648438 46.53091049194336 20.02599906921387 L 36.65961074829102 2.526081085205078 C 36.12863159179688 1.584758758544922 35.12741088867188 1 34.04664993286133 1 L 14.46379089355469 1 M 14.46379089355469 0 L 34.04664993286133 0 C 35.49002838134766 0 36.82146072387695 0.7776107788085938 37.53060150146484 2.034778594970703 L 47.40190124511719 19.53470039367676 C 48.08996963500977 20.75450897216797 48.08996963500977 22.24533081054688 47.40190124511719 23.46513938903809 L 37.53060150146484 40.96506118774414 C 36.82146072387695 42.22222137451172 35.49002838134766 42.99983978271484 34.04664993286133 42.99983978271484 L 14.46379089355469 42.99983978271484 C 13.02040100097656 42.99983978271484 11.68896865844727 42.22222137451172 10.97983169555664 40.96506118774414 L 1.108531951904297 23.46513938903809 C 0.42047119140625 22.24533081054688 0.42047119140625 20.75450897216797 1.108531951904297 19.53470039367676 L 10.97983932495117 2.034778594970703 C 11.68898010253906 0.7776107788085938 13.02040863037109 0 14.46379089355469 0 Z" stroke="none" fill="#7b7b7b"/>
      </g>
    </g>
    <g id="Group_10006" data-name="Group 10006">
      <path id="Path_20956" data-name="Path 20956" d="M687.427,662.892a2.172,2.172,0,0,1,.743-1.705A3.086,3.086,0,0,1,692,661.2a2.193,2.193,0,0,1,.736,1.691,2.232,2.232,0,0,1-.75,1.719,2.718,2.718,0,0,1-1.91.686,2.684,2.684,0,0,1-1.9-.693A2.238,2.238,0,0,1,687.427,662.892Zm.34,20.7V667.943h4.556v15.648Z" transform="translate(888.271 3531.938)" fill="#7b7b7b"/>
      <path id="Path_20955" data-name="Path 20955" d="M777.006,741.761h-4.542v-8.73q0-3.792-2.731-3.792a2.728,2.728,0,0,0-2.165,1.012,3.838,3.838,0,0,0-.863,2.582v8.928h-4.57V726.113h4.57v2.49h.057a5.515,5.515,0,0,1,5.037-2.872q5.207,0,5.207,6.452Z" transform="translate(821.62 3473.768)" fill="#7b7b7b"/>
    </g>
  </g>
</svg>
