<svg xmlns="http://www.w3.org/2000/svg" width="30" height="30" viewBox="0 0 30 30">
  <g id="Group_10014" data-name="Group 10014" transform="translate(0 -14)">
    <g id="Layer_2" data-name="Layer 2" transform="translate(0 14)">
      <g id="invisible_box" data-name="invisible box" transform="translate(0 0)">
        <rect id="Rectangle_108" data-name="Rectangle 108" width="30" height="30" fill="none"/>
      </g>
      <g id="icons_Q2" data-name="icons Q2" transform="translate(1.727 1.941)">
        <path id="Path_20941" data-name="Path 20941" d="M15.5,2a13.437,13.437,0,1,0,9.563,3.935A13.5,13.5,0,0,0,15.5,2Zm6.995,10.062-8.59,8.59a1.166,1.166,0,0,1-1.718,0l-3.62-3.62a1.35,1.35,0,0,1-.245-1.657,1.227,1.227,0,0,1,1.9-.123l2.822,2.822,7.731-7.731a1.227,1.227,0,0,1,1.718,1.718Z" transform="translate(-2 -2)" fill="#fb5537"/>
      </g>
    </g>
  </g>
</svg>
