<svg xmlns="http://www.w3.org/2000/svg" xmlns:xlink="http://www.w3.org/1999/xlink" width="396" height="396" viewBox="0 0 396 396">
  <defs>
    <clipPath id="clip-path">
      <rect id="Rectangle_135" data-name="Rectangle 135" width="396" height="396" fill="none"/>
    </clipPath>
    <clipPath id="clip-path-2">
      <path id="Path_21084" data-name="Path 21084" d="M89.709,180.341C75.105,191.369,34.56,227.22,59.356,264.2S164.795,278.14,164.795,278.14s31.7-44.282,28.01-46.967-57.671-3.938-58.071-3.947a73.58,73.58,0,0,1,13.758-11.633l-33.848-51.236a264.273,264.273,0,0,0-24.934,15.984" transform="translate(-51.503 -164.357)" fill="none"/>
    </clipPath>
    <clipPath id="clip-path-4">
      <path id="Path_21095" data-name="Path 21095" d="M262.9,251.722l50.857,100.8h0s8.353,32.276,55.64,31.416a18.55,18.55,0,0,0,6.124-10.224c9.109-43.825-12.3-65.562-47.657-92.677-34.359-26.349-53.588-29.7-61.155-29.706a13.854,13.854,0,0,0-3.809.392" transform="translate(-262.901 -251.33)" fill="none"/>
    </clipPath>
    <clipPath id="clip-path-6">
      <path id="Path_21107" data-name="Path 21107" d="M199.533,251.1c-2.294-2.168-4.666-4.029-6.534-4.624-5.333-1.7-16.858,2.212-18.352,8.1-.965,3.81,1.523,9.4,3.4,12.879-1.8,1.932-2.768,3.173-2.768,3.173-30.1,33.643-28.042,117.8-28.042,117.8h144.59c6.975-78.37-13.935-112.9-13.935-112.9a38.8,38.8,0,0,0-3.237-4.654,25.487,25.487,0,0,0,1.6-5.161c-.172-1.377-7-8.874-12.967-9.229a16.737,16.737,0,0,0-4.085.322,74.021,74.021,0,0,0-26.992-10.855,46.772,46.772,0,0,0-8.9-.855,52.682,52.682,0,0,0-23.782,6" transform="translate(-147.212 -245.102)" fill="none"/>
    </clipPath>
  </defs>
  <g id="Group_10003" data-name="Group 10003" transform="translate(-10896 -1088)">
    <rect id="Rectangle_134" data-name="Rectangle 134" width="396" height="396" transform="translate(10896 1088)" fill="#fff"/>
    <g id="Group_9992" data-name="Group 9992" transform="translate(10896 1088)">
      <g id="Group_9991" data-name="Group 9991" clip-path="url(#clip-path)">
        <path id="Path_21049" data-name="Path 21049" d="M46.906,334.85s46.445-45.3,102.695-26.718,159.46-23,158.428-89.679-36.265-39.4-25.357-23.37,53.5,16.98,64.457-18.069S375.287,142.2,375.287,142.2" transform="translate(-9.756 -29.577)" fill="none" stroke="#d4d4d4" stroke-linecap="round" stroke-linejoin="round" stroke-width="1"/>
        <path id="Path_21050" data-name="Path 21050" d="M79.041,70.679s29.351,17.767,20.36,33.384c-7.735,13.435-23.785-13.211,7-11.919s29.905,29.92,29.905,29.92" transform="translate(-16.441 -14.701)" fill="none" stroke="#d4d4d4" stroke-linecap="round" stroke-linejoin="round" stroke-width="1"/>
        <path id="Path_21051" data-name="Path 21051" d="M396.806,304.9s23.222,2.064,27.351-9.289-6.709-12.666-8.773-6.59,11.353,13.816,20.126,11.751" transform="translate(-82.536 -59.372)" fill="none" stroke="#d4d4d4" stroke-linecap="round" stroke-linejoin="round" stroke-width="1"/>
        <path id="Path_21052" data-name="Path 21052" d="M64.428,180.521l-21.766,2.447,7.6-14.15Z" transform="translate(-8.874 -35.114)" fill="#d4d4d4"/>
        <path id="Path_21053" data-name="Path 21053" d="M436.553,238.042l7.225-8.133,4.644,10.428Z" transform="translate(-90.803 -47.821)" fill="#d4d4d4"/>
        <path id="Path_21054" data-name="Path 21054" d="M226.46,83.67l-4.3-12.934,11.986,3.484Z" transform="translate(-46.21 -14.713)" fill="#d4d4d4"/>
        <line id="Line_25" data-name="Line 25" x1="15.506" y1="2.578" transform="translate(29.397 281.132)" fill="none" stroke="#000" stroke-linecap="round" stroke-linejoin="round" stroke-width="1"/>
        <line id="Line_26" data-name="Line 26" y1="14.93" x2="11.181" transform="translate(243.041 146.31)" fill="none" stroke="#000" stroke-linecap="round" stroke-linejoin="round" stroke-width="1"/>
        <line id="Line_27" data-name="Line 27" x1="5.098" y1="22.429" transform="translate(133.683 43.053)" fill="none" stroke="#000" stroke-linecap="round" stroke-linejoin="round" stroke-width="1"/>
        <line id="Line_28" data-name="Line 28" y1="2.391" x2="10.458" transform="translate(267.712 199.371)" fill="none" stroke="#000" stroke-linecap="round" stroke-linejoin="round" stroke-width="1"/>
        <line id="Line_29" data-name="Line 29" x2="350.328" transform="translate(20.096 337.456)" fill="none" stroke="#000" stroke-linecap="round" stroke-linejoin="round" stroke-width="0.75"/>
        <path id="Path_21055" data-name="Path 21055" d="M399.241,56.755c-27.191,18.6-50.737,39.514-59.386,53.489-6.57,10.615-6.464,16.338-2.547,17.906,5.74,2.3,16.691-12.027,16.691-12.027s-.5,9.641,5.866,8.563l-.18.128a8.087,8.087,0,0,0,8.3,5.032,8.652,8.652,0,0,0,1.38-.177c.016.033,2.777,5.967,8.466,4.449a10.526,10.526,0,0,0,5.741-4.005,255.059,255.059,0,0,0,48-27.459Z" transform="translate(-69.596 -11.805)" fill="#fff"/>
        <path id="Path_21056" data-name="Path 21056" d="M374.382,113s-9.569,18.808-2.555,21.968,12.064-12.883,12.064-12.883,5.137.481,9.292-5.713" transform="translate(-76.806 -23.504)" fill="none" stroke="#000" stroke-linecap="round" stroke-linejoin="round" stroke-width="1"/>
        <path id="Path_21057" data-name="Path 21057" d="M366.276,139.743a8.087,8.087,0,0,0,8.3,5.033c6.532-.265,12.054-8.112,12-11.9a4.4,4.4,0,0,0-4.513-4.35" transform="translate(-76.185 -26.734)" fill="none" stroke="#000" stroke-linecap="round" stroke-linejoin="round" stroke-width="1"/>
        <path id="Path_21058" data-name="Path 21058" d="M378.492,145.911s2.763,5.974,8.468,4.453,8.52-7.674,7.82-11.211a4.93,4.93,0,0,0-5.634-4.236" transform="translate(-78.726 -28.05)" fill="none" stroke="#000" stroke-linecap="round" stroke-linejoin="round" stroke-width="1"/>
        <line id="Line_30" data-name="Line 30" y1="1.668" x2="3.253" transform="translate(290.753 97.478)" fill="none" stroke="#000" stroke-linecap="round" stroke-linejoin="round" stroke-width="1"/>
        <path id="Path_21059" data-name="Path 21059" d="M394.847,60.6c-25.31,17.8-46.811,37.227-54.991,50.444-6.57,10.615-6.464,16.338-2.546,17.906,5.74,2.3,16.691-12.027,16.691-12.027s-.7,13.439,10.02,6.819" transform="translate(-69.596 -12.605)" fill="none" stroke="#000" stroke-linecap="round" stroke-linejoin="round" stroke-width="1"/>
        <path id="Path_21060" data-name="Path 21060" d="M396.433,141.91a255.137,255.137,0,0,0,49.345-28.441" transform="translate(-82.458 -23.602)" fill="none" stroke="#000" stroke-linecap="round" stroke-linejoin="round" stroke-width="1"/>
        <path id="Path_21061" data-name="Path 21061" d="M417.128,51.49c-9.281,6.1-18.249,12.538-26.478,18.969.038.028,23.538,17.229,40.082,39.61A231.572,231.572,0,0,0,454.47,92.8,115.289,115.289,0,0,0,417.128,51.49" transform="translate(-81.255 -10.71)" fill="#fb5537"/>
        <path id="Path_21062" data-name="Path 21062" d="M417.128,51.49c-9.281,6.1-18.249,12.538-26.478,18.969.038.028,23.538,17.229,40.082,39.61A231.572,231.572,0,0,0,454.47,92.8,115.289,115.289,0,0,0,417.128,51.49Z" transform="translate(-81.255 -10.71)" fill="none" stroke="#000" stroke-linecap="round" stroke-linejoin="round" stroke-width="1"/>
        <path id="Path_21063" data-name="Path 21063" d="M407.8,66.6S425.095,77,442.1,102.911" transform="translate(-84.823 -13.852)" fill="none" stroke="#000" stroke-linecap="round" stroke-linejoin="round" stroke-width="1"/>
        <circle id="Ellipse_4" data-name="Ellipse 4" cx="3.01" cy="3.01" r="3.01" transform="translate(318.623 62.905) rotate(-76.718)" fill="none" stroke="#000" stroke-linecap="round" stroke-linejoin="round" stroke-width="1"/>
        <path id="Path_21064" data-name="Path 21064" d="M271.686,163.992a32.276,32.276,0,1,1-29.109-35.158,32.276,32.276,0,0,1,29.109,35.158" transform="translate(-43.113 -26.767)" fill="#fff"/>
        <path id="Path_21065" data-name="Path 21065" d="M271.686,163.992a32.276,32.276,0,1,1-29.109-35.158A32.276,32.276,0,0,1,271.686,163.992Z" transform="translate(-43.113 -26.767)" fill="none" stroke="#000" stroke-linecap="round" stroke-linejoin="round" stroke-width="1"/>
        <path id="Path_21066" data-name="Path 21066" d="M272.147,163.993a32.276,32.276,0,0,0-34.7-35.2,19.208,19.208,0,0,0-4.6.285c-15.879,2.226-26.463,16.757-22.531,18.978s12.007-8.965,12.007-8.965c-.225,1.221-5.312,7.874-.95,9.292,3.709,1.205,8.7-9.418,8.7-9.418s-3.489,8.5-.089,10.18,6.082-7.627,6.082-7.627-2.509,10.176,6.424,14.793,11.89,4.093,11.89,4.093V160.4a45.788,45.788,0,0,0,8.326,1.589l-3.376,24.839a32.189,32.189,0,0,0,12.82-22.833" transform="translate(-43.574 -26.768)"/>
        <path id="Path_21067" data-name="Path 21067" d="M280.71,172.549a8,8,0,1,1-7.218-8.718,8,8,0,0,1,7.218,8.718" transform="translate(-55.066 -34.07)" fill="#fff"/>
        <path id="Path_21068" data-name="Path 21068" d="M267.7,171.875a5.683,5.683,0,1,1,5.126,6.192" transform="translate(-55.681 -34.679)" fill="none" stroke="#000" stroke-linecap="round" stroke-linejoin="round" stroke-width="1"/>
        <path id="Path_21069" data-name="Path 21069" d="M304.991,114a21.066,21.066,0,1,1-8.715-28.489A21.066,21.066,0,0,1,304.991,114" transform="translate(-55.186 -17.272)"/>
        <path id="Path_21070" data-name="Path 21070" d="M244.606,165.954c-.174,1.856-1.451,3.253-2.851,3.121s-2.393-1.743-2.218-3.6,1.451-3.252,2.851-3.12,2.393,1.742,2.218,3.6" transform="translate(-49.819 -33.768)"/>
        <path id="Path_21071" data-name="Path 21071" d="M222.01,159.059c-.163,1.738-1.359,3.046-2.67,2.922s-2.241-1.632-2.078-3.369,1.359-3.046,2.67-2.922,2.241,1.632,2.078,3.369" transform="translate(-45.187 -32.382)"/>
        <path id="Path_21072" data-name="Path 21072" d="M230.635,155.733,223.95,163.8l6.063,2.066" transform="translate(-46.582 -32.392)" fill="none" stroke="#000" stroke-linecap="round" stroke-linejoin="round" stroke-width="1"/>
        <path id="Path_21073" data-name="Path 21073" d="M220.985,176.057a52.641,52.641,0,0,1,9.469,1.342" transform="translate(-45.965 -36.62)" fill="none" stroke="#000" stroke-linecap="round" stroke-linejoin="round" stroke-width="1"/>
        <path id="Path_21074" data-name="Path 21074" d="M253.294,178.744a5.847,5.847,0,1,1-2.419-7.907,5.847,5.847,0,0,1,2.419,7.907" transform="translate(-50.395 -35.392)" fill="#fb5537"/>
        <path id="Path_21075" data-name="Path 21075" d="M215.565,169.2a4.987,4.987,0,0,0-7.48-6.266c-.123.741-.249,1.48-.321,2.235a31.7,31.7,0,0,0-.027,5.295,4.929,4.929,0,0,0,1.079.8,4.991,4.991,0,0,0,6.749-2.065" transform="translate(-43.189 -33.668)" fill="#ed5d1c"/>
        <path id="Path_21076" data-name="Path 21076" d="M205.023,172.175c-.756-7.526-26.317-3.088-26.317-3.088,24.424-7.3,22.553-15.361,18.133-19.181-1.647-1.424-2.878-1.855-6.9-.835l.318-.489a5.914,5.914,0,0,0-3.205-7.04c-3.127-1.62-12.057.49-20.424,3.265.31-.575,4.274-7.849-1.806-9.553-6.3-1.765-55.948,24.542-75.114,39.016C75.105,185.3,34.56,221.149,59.356,258.13s105.439,13.939,105.439,13.939,31.7-44.282,28.01-46.967-57.672-3.938-58.072-3.947c14.292-15.781,37.515-24.032,44.447-25.3,8.27-1.508,20.71-2.158,20.5-8.411-.148-4.483-6.228-5.394-9.66-5.552,15.053-.078,15.559-4.138,15-9.721m-17.3,9.715,0,0h.025l-.023,0" transform="translate(-10.712 -28.115)" fill="#fff"/>
      </g>
    </g>
    <g id="Group_9994" data-name="Group 9994" transform="translate(10936.79 1218.171)">
      <g id="Group_9993" data-name="Group 9993" transform="translate(0 0)" clip-path="url(#clip-path-2)">
        <path id="Path_21077" data-name="Path 21077" d="M156.379,283.591a10.277,10.277,0,0,0-19.187,2.7,10.739,10.739,0,0,0,7.7,12.9,10.135,10.135,0,0,0,8.959-2.109,10.277,10.277,0,0,0,19.186-2.7,10.739,10.739,0,0,0-7.7-12.9A10.134,10.134,0,0,0,156.379,283.591Z" transform="translate(-69.267 -188.007)" fill="none" stroke="#ed5d1c" stroke-linecap="round" stroke-linejoin="round" stroke-width="1"/>
        <path id="Path_21078" data-name="Path 21078" d="M93.8,300.73a10.277,10.277,0,0,0-19.187,2.7,10.739,10.739,0,0,0,7.7,12.9,10.134,10.134,0,0,0,8.959-2.11,10.276,10.276,0,0,0,19.186-2.7,10.739,10.739,0,0,0-7.7-12.9A10.133,10.133,0,0,0,93.8,300.73Z" transform="translate(-56.251 -191.572)" fill="none" stroke="#ed5d1c" stroke-linecap="round" stroke-linejoin="round" stroke-width="1"/>
        <path id="Path_21079" data-name="Path 21079" d="M100.5,239.218a10.277,10.277,0,0,0-19.187,2.7,10.74,10.74,0,0,0,7.7,12.9,10.138,10.138,0,0,0,8.959-2.11,10.277,10.277,0,0,0,19.186-2.7,10.739,10.739,0,0,0-7.7-12.9A10.134,10.134,0,0,0,100.5,239.218Z" transform="translate(-57.643 -178.777)" fill="none" stroke="#ed5d1c" stroke-linecap="round" stroke-linejoin="round" stroke-width="1"/>
        <path id="Path_21080" data-name="Path 21080" d="M144.993,201.59a10.277,10.277,0,0,0-19.187,2.7,10.739,10.739,0,0,0,7.7,12.9,10.133,10.133,0,0,0,8.959-2.11,10.276,10.276,0,0,0,19.186-2.7,10.739,10.739,0,0,0-7.7-12.9A10.132,10.132,0,0,0,144.993,201.59Z" transform="translate(-66.899 -170.951)" fill="none" stroke="#ed5d1c" stroke-linecap="round" stroke-linejoin="round" stroke-width="1"/>
        <path id="Path_21081" data-name="Path 21081" d="M81.449,186.093a10.277,10.277,0,0,0-19.187,2.7,10.74,10.74,0,0,0,7.7,12.9,10.138,10.138,0,0,0,8.959-2.11,10.277,10.277,0,0,0,19.186-2.7,10.739,10.739,0,0,0-7.7-12.9A10.133,10.133,0,0,0,81.449,186.093Z" transform="translate(-53.682 -167.727)" fill="none" stroke="#ed5d1c" stroke-linecap="round" stroke-linejoin="round" stroke-width="1"/>
        <path id="Path_21082" data-name="Path 21082" d="M35.479,258.848a10.277,10.277,0,0,0-19.187,2.7,10.739,10.739,0,0,0,7.7,12.9,10.133,10.133,0,0,0,8.959-2.11,10.276,10.276,0,0,0,19.186-2.7,10.739,10.739,0,0,0-7.7-12.9A10.132,10.132,0,0,0,35.479,258.848Z" transform="translate(-44.12 -182.861)" fill="none" stroke="#ed5d1c" stroke-linecap="round" stroke-linejoin="round" stroke-width="1"/>
        <path id="Path_21083" data-name="Path 21083" d="M152.768,247.516a10.358,10.358,0,0,0,2.545-1.573,10.255,10.255,0,0,0,18.83-1.479" transform="translate(-72.566 -181.019)" fill="none" stroke="#ed5d1c" stroke-linecap="round" stroke-linejoin="round" stroke-width="1"/>
      </g>
    </g>
    <g id="Group_9996" data-name="Group 9996" transform="translate(10896 1088)">
      <g id="Group_9995" data-name="Group 9995" clip-path="url(#clip-path)">
        <path id="Path_21085" data-name="Path 21085" d="M180.45,151.919s27.8-13.911,34.088-8.451c2.846,2.47,3.215,4.552,2.541,6.577" transform="translate(-37.534 -29.577)" fill="none" stroke="#000" stroke-linecap="round" stroke-linejoin="round" stroke-width="1"/>
        <path id="Path_21086" data-name="Path 21086" d="M196.863,162.021s23.033-12.617,29.649-8.871c5.866,3.322,5.811,13.138-17.571,19.533,0,0,26.317-5.6,26.634,3.8.225,6.67-1.623,9.845-25.2,8.778" transform="translate(-40.948 -31.711)" fill="none" stroke="#000" stroke-linecap="round" stroke-linejoin="round" stroke-width="1"/>
        <path id="Path_21087" data-name="Path 21087" d="M208.023,194.154s11.753-.7,11.959,5.558-12.235,6.9-20.5,8.41c-8.013,1.461-37.8,12.247-50.389,33.219" transform="translate(-31.01 -40.379)" fill="none" stroke="#000" stroke-linecap="round" stroke-linejoin="round" stroke-width="1"/>
        <path id="Path_21088" data-name="Path 21088" d="M134.724,221.154s54.391,1.262,58.081,3.947S164.8,272.068,164.8,272.068,84.152,295.11,59.356,258.13,75.106,185.3,89.709,174.27c19.166-14.474,68.817-40.78,75.114-39.016s1.193,9.787,1.193,9.787" transform="translate(-10.713 -28.115)" fill="none" stroke="#000" stroke-linecap="round" stroke-linejoin="round" stroke-width="1"/>
        <path id="Path_21089" data-name="Path 21089" d="M158.531,218.726a89.1,89.1,0,0,1,11.62-7.968c-20.925-18.3-27.887-54.261-27.887-54.261-3.8,2.064-7.616,4.2-11.329,6.357,1.553,28.256,19.786,48.459,27.6,55.872" transform="translate(-27.234 -32.552)" fill="#d4d4d4"/>
        <path id="Path_21090" data-name="Path 21090" d="M158.531,218.726a89.1,89.1,0,0,1,11.62-7.968c-20.925-18.3-27.887-54.261-27.887-54.261-3.8,2.064-7.616,4.2-11.329,6.357C132.488,191.111,150.721,211.313,158.531,218.726Z" transform="translate(-27.234 -32.552)" fill="none" stroke="#000" stroke-linecap="round" stroke-linejoin="round" stroke-width="1"/>
        <line id="Line_31" data-name="Line 31" y1="5.382" x2="9.894" transform="translate(106.377 129.196)" fill="none" stroke="#000" stroke-linecap="round" stroke-linejoin="round" stroke-width="1"/>
        <line id="Line_32" data-name="Line 32" y1="6.254" x2="10.236" transform="translate(110.429 143.005)" fill="none" stroke="#000" stroke-linecap="round" stroke-linejoin="round" stroke-width="1"/>
        <line id="Line_33" data-name="Line 33" y1="5.626" x2="9.296" transform="translate(118.769 159.14)" fill="none" stroke="#000" stroke-linecap="round" stroke-linejoin="round" stroke-width="1"/>
        <line id="Line_34" data-name="Line 34" y1="6.094" x2="9.596" transform="translate(126.636 171.263)" fill="none" stroke="#000" stroke-linecap="round" stroke-linejoin="round" stroke-width="1"/>
        <path id="Path_21091" data-name="Path 21091" d="M313.758,352.52s-7.541,41.618,55.64,31.417a18.551,18.551,0,0,0,6.125-10.224c9.108-43.825-12.3-65.563-47.658-92.678-46.1-35.353-64.964-29.313-64.964-29.313Z" transform="translate(-54.683 -52.277)" fill="#fff"/>
      </g>
    </g>
    <g id="Group_9998" data-name="Group 9998" transform="translate(11104.218 1287.053)">
      <g id="Group_9997" data-name="Group 9997" transform="translate(0 0)" clip-path="url(#clip-path-4)">
        <path id="Path_21092" data-name="Path 21092" d="M348.771,283.591a10.277,10.277,0,0,0-19.187,2.7,10.739,10.739,0,0,0,7.7,12.9,10.136,10.136,0,0,0,8.959-2.109,10.277,10.277,0,0,0,19.186-2.7,10.739,10.739,0,0,0-7.7-12.9A10.133,10.133,0,0,0,348.771,283.591Z" transform="translate(-276.712 -256.89)" fill="none" stroke="#ed5d1c" stroke-linecap="round" stroke-linejoin="round" stroke-width="1"/>
        <path id="Path_21093" data-name="Path 21093" d="M335.119,334.124a10.277,10.277,0,0,0-19.187,2.7,10.739,10.739,0,0,0,7.7,12.9,10.134,10.134,0,0,0,8.959-2.11,10.276,10.276,0,0,0,19.186-2.7,10.74,10.74,0,0,0-7.7-12.9A10.135,10.135,0,0,0,335.119,334.124Z" transform="translate(-273.872 -267.401)" fill="none" stroke="#ed5d1c" stroke-linecap="round" stroke-linejoin="round" stroke-width="1"/>
        <path id="Path_21094" data-name="Path 21094" d="M404.233,327.978a10.277,10.277,0,0,0-19.187,2.7,10.74,10.74,0,0,0,7.7,12.9,10.138,10.138,0,0,0,8.959-2.11,10.277,10.277,0,0,0,19.186-2.7,10.74,10.74,0,0,0-7.7-12.9A10.134,10.134,0,0,0,404.233,327.978Z" transform="translate(-288.248 -266.122)" fill="none" stroke="#ed5d1c" stroke-linecap="round" stroke-linejoin="round" stroke-width="1"/>
      </g>
    </g>
    <g id="Group_10000" data-name="Group 10000" transform="translate(10896 1088)">
      <g id="Group_9999" data-name="Group 9999" clip-path="url(#clip-path)">
        <path id="Path_21096" data-name="Path 21096" d="M262.9,251.722s18.864-6.041,64.965,29.314c35.357,27.115,56.766,48.853,47.657,92.677" transform="translate(-54.683 -52.277)" fill="none" stroke="#000" stroke-linecap="round" stroke-linejoin="round" stroke-width="1"/>
        <path id="Path_21097" data-name="Path 21097" d="M277.9,275.534s20.91,34.533,13.934,112.9H147.243s-2.06-84.162,28.041-117.8c0,0,24.1-31.02,56.927-24.676S277.9,275.534,277.9,275.534" transform="translate(-30.62 -50.981)" fill="#fff"/>
      </g>
    </g>
    <g id="Group_10002" data-name="Group 10002" transform="translate(11012.592 1282.121)">
      <g id="Group_10001" data-name="Group 10001" transform="translate(0 0)" clip-path="url(#clip-path-6)">
        <path id="Path_21098" data-name="Path 21098" d="M166.057,341.743a10.277,10.277,0,0,0-19.187,2.7,10.739,10.739,0,0,0,7.7,12.9,10.134,10.134,0,0,0,8.959-2.11,10.276,10.276,0,0,0,19.186-2.7,10.739,10.739,0,0,0-7.7-12.9A10.134,10.134,0,0,0,166.057,341.743Z" transform="translate(-147.082 -264.053)" fill="none" stroke="#ed5d1c" stroke-linecap="round" stroke-linejoin="round" stroke-width="1"/>
        <path id="Path_21099" data-name="Path 21099" d="M211.8,303.128a10.277,10.277,0,0,0-19.187,2.7,10.739,10.739,0,0,0,7.7,12.9,10.133,10.133,0,0,0,8.959-2.11,10.276,10.276,0,0,0,19.186-2.7,10.74,10.74,0,0,0-7.7-12.9A10.135,10.135,0,0,0,211.8,303.128Z" transform="translate(-156.597 -256.021)" fill="none" stroke="#ed5d1c" stroke-linecap="round" stroke-linejoin="round" stroke-width="1"/>
        <path id="Path_21100" data-name="Path 21100" d="M279.256,262.493a10.277,10.277,0,0,0-19.187,2.7,10.741,10.741,0,0,0,7.7,12.9,10.138,10.138,0,0,0,8.959-2.11,10.277,10.277,0,0,0,19.186-2.7,10.74,10.74,0,0,0-7.7-12.9A10.137,10.137,0,0,0,279.256,262.493Z" transform="translate(-170.628 -247.569)" fill="none" stroke="#ed5d1c" stroke-linecap="round" stroke-linejoin="round" stroke-width="1"/>
        <path id="Path_21101" data-name="Path 21101" d="M259.385,349.617a10.277,10.277,0,0,0-19.187,2.7,10.74,10.74,0,0,0,7.7,12.9,10.138,10.138,0,0,0,8.959-2.11,10.277,10.277,0,0,0,19.186-2.7,10.739,10.739,0,0,0-7.7-12.9A10.131,10.131,0,0,0,259.385,349.617Z" transform="translate(-166.494 -265.691)" fill="none" stroke="#ed5d1c" stroke-linecap="round" stroke-linejoin="round" stroke-width="1"/>
        <path id="Path_21102" data-name="Path 21102" d="M310.592,314.42a10.277,10.277,0,0,0-19.187,2.7,10.74,10.74,0,0,0,7.7,12.9,10.136,10.136,0,0,0,8.959-2.11,10.277,10.277,0,0,0,19.186-2.7,10.739,10.739,0,0,0-7.7-12.9A10.134,10.134,0,0,0,310.592,314.42Z" transform="translate(-177.145 -258.37)" fill="none" stroke="#ed5d1c" stroke-linecap="round" stroke-linejoin="round" stroke-width="1"/>
        <path id="Path_21103" data-name="Path 21103" d="M327.841,380.822a10.277,10.277,0,0,0-19.187,2.7,10.739,10.739,0,0,0,7.7,12.9,10.132,10.132,0,0,0,8.959-2.111,10.276,10.276,0,0,0,19.186-2.7,10.74,10.74,0,0,0-7.7-12.9A10.136,10.136,0,0,0,327.841,380.822Z" transform="translate(-180.733 -272.181)" fill="none" stroke="#ed5d1c" stroke-linecap="round" stroke-linejoin="round" stroke-width="1"/>
        <path id="Path_21104" data-name="Path 21104" d="M211.8,392.946a10.277,10.277,0,0,0-19.187,2.7,10.74,10.74,0,0,0,7.7,12.9,10.138,10.138,0,0,0,8.959-2.11,10.277,10.277,0,0,0,19.186-2.7,10.739,10.739,0,0,0-7.7-12.9A10.134,10.134,0,0,0,211.8,392.946Z" transform="translate(-156.597 -274.703)" fill="none" stroke="#ed5d1c" stroke-linecap="round" stroke-linejoin="round" stroke-width="1"/>
        <path id="Path_21105" data-name="Path 21105" d="M141.588,415.821a10.277,10.277,0,0,0-19.187,2.7,10.74,10.74,0,0,0,7.7,12.9,10.138,10.138,0,0,0,8.959-2.11,10.277,10.277,0,0,0,19.186-2.7,10.739,10.739,0,0,0-7.7-12.9A10.134,10.134,0,0,0,141.588,415.821Z" transform="translate(-141.993 -279.461)" fill="none" stroke="#ed5d1c" stroke-linecap="round" stroke-linejoin="round" stroke-width="1"/>
        <path id="Path_21106" data-name="Path 21106" d="M206.456,254.524a10.277,10.277,0,0,0-19.187,2.7,10.74,10.74,0,0,0,7.7,12.9,10.138,10.138,0,0,0,8.959-2.11,10.277,10.277,0,0,0,19.186-2.7,10.739,10.739,0,0,0-7.7-12.9A10.134,10.134,0,0,0,206.456,254.524Z" transform="translate(-155.485 -245.911)" fill="none" stroke="#ed5d1c" stroke-linecap="round" stroke-linejoin="round" stroke-width="1"/>
      </g>
    </g>
    <path id="Path_21108" data-name="Path 21108" d="M277.9,282.239s20.91,34.533,13.934,112.9H147.243s-2.06-84.162,28.041-117.8" transform="translate(10865.38 1030.313)" fill="none" stroke="#000" stroke-linecap="round" stroke-linejoin="round" stroke-width="1"/>
    <path id="Path_21109" data-name="Path 21109" d="M247.619,254.844c-7.573-.693-27-2.886-31.488-19.128-5.047-18.281,14.22-26.7,34.039-16.607,9.929,5.059,26.914-1.46,29.415,11.918,2.447,13.092-12.993,25.554-31.966,23.817" transform="translate(10851.214 1043.325)" fill="#d4d4d4"/>
    <path id="Path_21110" data-name="Path 21110" d="M247.619,254.844c-7.573-.693-27-2.886-31.488-19.128-5.047-18.281,14.22-26.7,34.039-16.607,9.929,5.059,26.914-1.46,29.415,11.918C282.032,244.119,266.592,256.581,247.619,254.844Z" transform="translate(10851.214 1043.325)" fill="none" stroke="#000" stroke-linecap="round" stroke-linejoin="round" stroke-width="1"/>
    <path id="Path_21111" data-name="Path 21111" d="M226.7,226.452s14.658,24.373,48.029,7" transform="translate(10848.847 1040.898)" fill="none" stroke="#000" stroke-linecap="round" stroke-linejoin="round" stroke-width="1"/>
    <path id="Path_21112" data-name="Path 21112" d="M229.56,232.458a51.621,51.621,0,0,0-8.478,8.491" transform="translate(10850.015 1039.649)" fill="none" stroke="#000" stroke-linecap="round" stroke-linejoin="round" stroke-width="1"/>
    <path id="Path_21113" data-name="Path 21113" d="M237.836,238.479a56.549,56.549,0,0,0-8.388,11.691" transform="translate(10848.274 1038.396)" fill="none" stroke="#000" stroke-linecap="round" stroke-linejoin="round" stroke-width="1"/>
    <path id="Path_21114" data-name="Path 21114" d="M253.208,243.18a113.042,113.042,0,0,0-2.193,12.911" transform="translate(10843.789 1037.419)" fill="none" stroke="#000" stroke-linecap="round" stroke-linejoin="round" stroke-width="1"/>
    <path id="Path_21115" data-name="Path 21115" d="M267.222,242.434a40.686,40.686,0,0,1,2.517,11.592" transform="translate(10840.418 1037.574)" fill="none" stroke="#000" stroke-linecap="round" stroke-linejoin="round" stroke-width="1"/>
    <path id="Path_21116" data-name="Path 21116" d="M280.157,238.479a42.329,42.329,0,0,1,4.141,9.668" transform="translate(10837.728 1038.396)" fill="none" stroke="#000" stroke-linecap="round" stroke-linejoin="round" stroke-width="1"/>
    <path id="Path_21117" data-name="Path 21117" d="M291.284,388.745c-3.978-1.664-22.873-1.067-22.873-1.067h0c-14.921.273-30.8,2.588-42.759,6.385-12.77,4.053-27.127,16.818-25.932,25.5,1.188,8.642,7.709,5.532,7.767,5.5,1.683,3.019,5.763,3.947,9.492,2.14v0c1.978,1.7,5.23,2.034,8.511.55,1.944,2.771,6.764,3.676,14.273-.075,15.04-7.515,36.145-4.272,36.145-4.272s40.326,1.934,44.449-17.906c.067-.323.117-.634.181-.954-8.479-6.258-25.628-14.288-29.253-15.8" transform="translate(10854.473 1007.385)" fill="#fff"/>
    <path id="Path_21118" data-name="Path 21118" d="M326.887,410.212c-4.124,19.84-44.45,17.906-44.45,17.906s-21.1-3.242-36.145,4.272-19.3-3.65-11.238-11.089a30.45,30.45,0,0,1,18.188-7.664" transform="translate(10847.943 1002.676)" fill="none" stroke="#000" stroke-linecap="round" stroke-linejoin="round" stroke-width="1"/>
    <path id="Path_21119" data-name="Path 21119" d="M243.636,410.212s-16.659,1.422-22.5,11.089c-5.552,9.185,1.364,14.348,8.406,11.164" transform="translate(10850.425 1002.676)" fill="none" stroke="#000" stroke-linecap="round" stroke-linejoin="round" stroke-width="1"/>
    <path id="Path_21120" data-name="Path 21120" d="M232.719,405.459s-16.636,3.282-22.452,14.132c-5.139,9.588,2.222,14.406,8.56,11.337" transform="translate(10852.624 1003.665)" fill="none" stroke="#000" stroke-linecap="round" stroke-linejoin="round" stroke-width="1"/>
    <path id="Path_21121" data-name="Path 21121" d="M207.488,425.033s-6.577,3.178-7.77-5.5,13.163-21.445,25.933-25.5c17.433-5.534,50.968-9.3,70.911-4.226" transform="translate(10854.474 1007.418)" fill="none" stroke="#000" stroke-linecap="round" stroke-linejoin="round" stroke-width="1"/>
    <path id="Path_21122" data-name="Path 21122" d="M55.5,410.864A16.447,16.447,0,1,0,71.95,394.417,16.447,16.447,0,0,0,55.5,410.864m6.054,0A10.393,10.393,0,1,1,71.95,421.257a10.393,10.393,0,0,1-10.393-10.393" transform="translate(10884.455 1005.961)" fill="#fff"/>
    <path id="Path_21123" data-name="Path 21123" d="M55.5,410.864A16.447,16.447,0,1,0,71.95,394.417,16.447,16.447,0,0,0,55.5,410.864Zm6.054,0A10.393,10.393,0,1,1,71.95,421.257,10.393,10.393,0,0,1,61.557,410.864Z" transform="translate(10884.455 1005.961)" fill="none" stroke="#000" stroke-linecap="round" stroke-linejoin="round" stroke-width="1"/>
    <path id="Path_21124" data-name="Path 21124" d="M84.419,434.8H111.7a9.024,9.024,0,0,0,9.024-9.024V391.61a9.024,9.024,0,0,0-9.024-9.024H84.419a9.024,9.024,0,0,0-9.024,9.024v34.164a9.024,9.024,0,0,0,9.024,9.024" transform="translate(10880.317 1008.422)" fill="#fff"/>
    <rect id="Rectangle_138" data-name="Rectangle 138" width="45.329" height="52.212" rx="11.394" transform="translate(10955.713 1391.008)" fill="none" stroke="#000" stroke-linecap="round" stroke-linejoin="round" stroke-width="1"/>
    <path id="Path_21125" data-name="Path 21125" d="M98.444,350.152c13.464-4.137,12.366-23.668,0-32.52-10.417-7.457-1.666-10.741-5.063-30.705S71.736,257.07,50.359,266.811,26.105,312.2,50.3,322.784c17.278,7.56,26.66-3.933,27.773,13.967A15.62,15.62,0,0,0,98.444,350.152Z" transform="translate(10889.09 1033.291)" fill="none" stroke="#000" stroke-linecap="round" stroke-linejoin="round" stroke-width="1"/>
    <path id="Path_21130" data-name="Path 21130" d="M393.52,423.783l-83.9.154c-8.71.016-13.213-6.743-10.058-15.1l21.993-58.233c3.155-8.353,12.773-15.137,21.483-15.153l83.9-.153c8.71-.017,13.212,6.742,10.058,15.1L415,408.63c-3.155,8.353-12.773,15.138-21.483,15.153" transform="translate(10833.901 1018.257)"/>
    <path id="Path_21131" data-name="Path 21131" d="M398.894,383.674a9.361,9.361,0,0,1-8.474,6.707c-3.7.007-5.895-2.985-4.911-6.683a9.363,9.363,0,0,1,8.474-6.708c3.7-.006,5.895,2.986,4.911,6.684" transform="translate(10815.863 1009.586)" fill="#fff"/>
    <path id="Path_21132" data-name="Path 21132" d="M235.734,441.874l-.017-8.533a2.009,2.009,0,0,1,2-2.012l84.532-.154a2.008,2.008,0,0,1,2.012,2l.015,8.534a2.009,2.009,0,0,1-2,2.012l-84.53.154a2.009,2.009,0,0,1-2.012-2" transform="translate(10846.971 998.316)"/>
    <rect id="Rectangle_139" data-name="Rectangle 139" width="396" height="396" transform="translate(10896 1088)" fill="none"/>
    <circle id="Ellipse_5" data-name="Ellipse 5" cx="15" cy="15" r="15" transform="translate(10963 1402)" fill="#fb5537"/>
    <path id="Path_21127" data-name="Path 21127" d="M94.3,413.653c0,1.21-.61,2.191-1.363,2.191s-1.363-.981-1.363-2.191.611-2.191,1.363-2.191,1.363.981,1.363,2.191" transform="translate(10876.953 1002.416)"/>
    <path id="Path_21128" data-name="Path 21128" d="M115.085,413.653c0,1.21-.61,2.191-1.363,2.191s-1.363-.981-1.363-2.191.611-2.191,1.363-2.191,1.363.981,1.363,2.191" transform="translate(10872.629 1002.416)"/>
    <path id="Path_21129" data-name="Path 21129" d="M106.852,414.636c0,2.285-1.46,4.137-3.261,4.137s-3.261-1.852-3.261-4.137" transform="translate(10875.132 1001.756)" fill="none" stroke="#000" stroke-linecap="round" stroke-linejoin="round" stroke-width="1"/>
  </g>
</svg>
