<svg xmlns="http://www.w3.org/2000/svg" xmlns:xlink="http://www.w3.org/1999/xlink" width="81.511" height="79.494" viewBox="0 0 81.511 79.494">
  <defs>
    <filter id="Polygon_12" x="0" y="0" width="81.511" height="79.494" filterUnits="userSpaceOnUse">
      <feOffset dy="3" input="SourceAlpha"/>
      <feGaussianBlur stdDeviation="3" result="blur"/>
      <feFlood flood-opacity="0.161"/>
      <feComposite operator="in" in2="blur"/>
      <feComposite in="SourceGraphic"/>
    </filter>
  </defs>
  <g id="Group_10008" data-name="Group 10008" transform="translate(-1622.489 -4167.251)">
    <g transform="matrix(1, 0, 0, 1, 1622.49, 4167.25)" filter="url(#Polygon_12)">
      <g id="Polygon_12-2" data-name="Polygon 12" transform="translate(72.51 43.24) rotate(150)" fill="none">
        <path d="M34.047,0a4,4,0,0,1,3.484,2.035l9.871,17.5a4,4,0,0,1,0,3.93l-9.871,17.5A4,4,0,0,1,34.047,43H14.464a4,4,0,0,1-3.484-2.035l-9.871-17.5a4,4,0,0,1,0-3.93l9.871-17.5A4,4,0,0,1,14.464,0Z" stroke="none"/>
        <path d="M 14.46379089355469 1 C 13.38302993774414 1 12.38180923461914 1.584758758544922 11.850830078125 2.526081085205078 L 1.979518890380859 20.02599906921387 C 1.466701507568359 20.93515014648438 1.466701507568359 22.06468963623047 1.979518890380859 22.97384071350098 L 11.8508186340332 40.47375106811523 C 12.38180160522461 41.41508102416992 13.38302993774414 41.99983978271484 14.46379089355469 41.99983978271484 L 34.04664993286133 41.99983978271484 C 35.12739944458008 41.99983978271484 36.12863159179688 41.41508102416992 36.65961074829102 40.47375869750977 L 46.53091049194336 22.97382926940918 C 47.04373931884766 22.06468963623047 47.04373931884766 20.93515014648438 46.53091049194336 20.02599906921387 L 36.65961074829102 2.526081085205078 C 36.12863159179688 1.584758758544922 35.12741088867188 1 34.04664993286133 1 L 14.46379089355469 1 M 14.46379089355469 0 L 34.04664993286133 0 C 35.49002838134766 0 36.82146072387695 0.7776107788085938 37.53060150146484 2.034778594970703 L 47.40190124511719 19.53470039367676 C 48.08996963500977 20.75450897216797 48.08996963500977 22.24533081054688 47.40190124511719 23.46513938903809 L 37.53060150146484 40.96506118774414 C 36.82146072387695 42.22222137451172 35.49002838134766 42.99983978271484 34.04664993286133 42.99983978271484 L 14.46379089355469 42.99983978271484 C 13.02040100097656 42.99983978271484 11.68896865844727 42.22222137451172 10.97983169555664 40.96506118774414 L 1.108531951904297 23.46513938903809 C 0.42047119140625 22.24533081054688 0.42047119140625 20.75450897216797 1.108531951904297 19.53470039367676 L 10.97983932495117 2.034778594970703 C 11.68898010253906 0.7776107788085938 13.02040863037109 0 14.46379089355469 0 Z" stroke="none" fill="#7b7b7b"/>
      </g>
    </g>
    <path id="Path_20957" data-name="Path 20957" d="M1643.31,1588.14a.465.465,0,0,0,.676-.337c.062-.237.209-.835.275-1.084a.652.652,0,0,0-.194-.752,3.9,3.9,0,0,1-.89-2.648,6.393,6.393,0,0,1,6.646-6.465c3.625,0,5.617,2.215,5.617,5.174,0,3.892-1.723,7.177-4.28,7.177a2.089,2.089,0,0,1-2.131-2.6c.407-1.71,1.192-3.556,1.192-4.791a1.808,1.808,0,0,0-1.82-2.027c-1.444,0-2.6,1.494-2.6,3.495a5.19,5.19,0,0,0,.431,2.136l-1.736,7.356a15.127,15.127,0,0,0-.041,5.13.18.18,0,0,0,.321.078,14.4,14.4,0,0,0,2.437-4.418c.166-.6.95-3.71.95-3.71a3.868,3.868,0,0,0,3.3,1.682c4.34,0,7.284-3.956,7.284-9.252,0-4-3.391-7.733-8.546-7.733-6.414,0-9.648,4.6-9.648,8.433C1640.545,1585.305,1641.425,1587.371,1643.31,1588.14Z" transform="translate(14.129 2617.697)" fill="#7b7b7b"/>
  </g>
</svg>
