<svg xmlns="http://www.w3.org/2000/svg" width="35.024" height="36.535" viewBox="0 0 35.024 36.535">
  <path id="settings" d="M2.3,14.644A18.23,18.23,0,0,1,6.145,8.027a1.082,1.082,0,0,1,1.164-.291L11.45,9.21A2.155,2.155,0,0,0,14.3,7.572l.789-4.311a1.077,1.077,0,0,1,.837-.858,18.587,18.587,0,0,1,7.672,0,1.077,1.077,0,0,1,.837.858l.791,4.312a2.162,2.162,0,0,0,2.85,1.638l4.14-1.474a1.082,1.082,0,0,1,1.164.291,18.233,18.233,0,0,1,3.843,6.617,1.072,1.072,0,0,1-.329,1.15l-3.356,2.837a2.144,2.144,0,0,0,0,3.276l3.356,2.837a1.072,1.072,0,0,1,.329,1.15,18.23,18.23,0,0,1-3.843,6.617,1.082,1.082,0,0,1-1.164.291l-4.14-1.474a2.155,2.155,0,0,0-2.85,1.639l-.791,4.312a1.077,1.077,0,0,1-.837.858,18.584,18.584,0,0,1-7.672,0,1.077,1.077,0,0,1-.837-.858L14.3,32.967a2.161,2.161,0,0,0-2.849-1.638L7.309,32.8a1.082,1.082,0,0,1-1.164-.291A18.227,18.227,0,0,1,2.3,25.894a1.072,1.072,0,0,1,.328-1.15l3.356-2.837a2.144,2.144,0,0,0,0-3.276L2.631,15.794A1.072,1.072,0,0,1,2.3,14.644Zm12.13,5.625a5.33,5.33,0,1,0,5.33-5.33A5.33,5.33,0,0,0,14.432,20.269Z" transform="translate(-2.25 -2.002)" fill="#fff"/>
</svg>
